<svg viewBox="0 0 256 256" fill="none" xmlns="http://www.w3.org/2000/svg">
<path d="M235.21 0H20.7903C9.30814 0 0 9.28382 0 20.736V235.264C0 246.716 9.30814 256 20.7903 256H235.21C246.692 256 256 246.716 256 235.264V20.736C256 9.28382 246.692 0 235.21 0Z" fill="url(#paint0_linear_61_707)"/>
<path d="M195.073 50.3763C202.095 51.4139 206.941 57.9411 205.905 64.9522C204.869 71.9658 198.337 76.8153 191.312 75.7774C178.874 73.9395 160.241 93.2584 139.379 132.982C112.746 183.694 87.9571 207.856 61.8589 205.928C54.7794 205.404 49.4687 199.247 49.991 192.178C50.5134 185.109 56.6736 179.797 63.7543 180.32C76.642 181.272 95.572 161.13 116.62 121.051C143.423 70.0152 168.549 46.4571 195.073 50.3763Z" fill="white"/>
<defs>
<linearGradient id="paint0_linear_61_707" x1="0.667863" y1="26.3791" x2="244.208" y2="185.502" gradientUnits="userSpaceOnUse">
<stop stop-color="#EC4465"/>
<stop offset="1" stop-color="#D14A65"/>
</linearGradient>
</defs>
</svg>
